# xmcd CD database file
#
# Track frame offsets:
#	150
#	13355
#	25455
#	36902
#	53105
#	64052
#	78127
#	89325
#	102332
#	114837
#	127042
#	143487
#	157127
#	170980
#	185412
#	196217
#	212407
#	232650
#	247135
#	257480
#
# Disc length: 3616 seconds
#
# Revision: 2
# Processed by: cddbd v1.5.1PL2 Copyright (c) Steve Scherf et al.
# Submitted via: CDex 1.51
#
DISCID=130e1e14
DTITLE=Charlie Rich - I Love Country
DYEAR=1988
DGENRE=Folk
TTITLE0=Behind Closed Doors
TTITLE1=The Most Beautiful Girl
TTITLE2=Daddy Don't You Walk So Fast
TTITLE3=My Elusive Dreams
TTITLE4=I Love My Friend
TTITLE5=A Sunday Kind Of Woman
TTITLE6=Papa Was A Good Man
TTITLE7=Spanish Eyes
TTITLE8=A Very Special Love Song
TTITLE9=Rollin' With The Flow
TTITLE10=Life has Its Little Ups And Downs
TTITLE11=Every Time You Touch Me (I Get High)
TTITLE12=Since I Fell For you
TTITLE13=On My Knees
TTITLE14=Somebody Wrote That Song For Me
TTITLE15=That's The Way A Cowboy Rocks And Rolls
TTITLE16=July 12, 1939
TTITLE17=Almost Persuaded
TTITLE18=Stay
TTITLE19=Midnight Blues
EXTD=YEAR: 1988
EXTT0=
EXTT1=
EXTT2=
EXTT3=
EXTT4=
EXTT5=
EXTT6=
EXTT7=
EXTT8=
EXTT9=
EXTT10=
EXTT11=
EXTT12=
EXTT13=
EXTT14=
EXTT15=
EXTT16=
EXTT17=
EXTT18=
EXTT19=
PLAYORDER=
